<?xml version="1.0" encoding="UTF-8"?>
<svg version="1.1" xmlns="http://www.w3.org/2000/svg" width="91" height="91">
<path d="M0 0 C2.4375 1.4375 2.4375 1.4375 4 4 C4.31821008 7.03082057 4.23343667 9.96532334 4 13 C4.845625 13.165 5.69125 13.33 6.5625 13.5 C12.10572829 15.91886326 15.5621426 20.37434736 18.4375 25.625 C19.11300217 28.47712029 19.13581885 31.07989471 19 34 C15.37 34 11.74 34 8 34 C7.505 38.95 7.505 38.95 7 44 C8.670625 43.938125 8.670625 43.938125 10.375 43.875 C14 44 14 44 16 46 C15.44444444 50.55555556 15.44444444 50.55555556 14 52 C11.66702567 52.04092937 9.33294775 52.04241723 7 52 C7 53.98 7 55.96 7 58 C2.56923077 60.09230769 2.56923077 60.09230769 -0.3125 59.625 C-0.869375 59.41875 -1.42625 59.2125 -2 59 C-2 57.02 -2 55.04 -2 53 C-3.175625 52.814375 -3.175625 52.814375 -4.375 52.625 C-7 52 -7 52 -9 50 C-8.625 46.875 -8.625 46.875 -8 44 C-5.03 43.505 -5.03 43.505 -2 43 C-1.67 40.03 -1.34 37.06 -1 34 C-2.98567708 34.29296875 -4.97135417 34.5859375 -6.95703125 34.87890625 C-9 35 -9 35 -12 34 C-11.9278125 35.05058594 -11.855625 36.10117187 -11.78125 37.18359375 C-10.40139857 57.80279714 -10.40139857 57.80279714 -12 61 C-2.1 61 7.8 61 18 61 C18 63.64 18 66.28 18 69 C17.34 69 16.68 69 16 69 C15.7525 69.639375 15.505 70.27875 15.25 70.9375 C14 73 14 73 12.30224609 73.61621094 C7.13839077 74.47703602 1.84616069 74.22806235 -3.375 74.25 C-5.20417969 74.2809375 -5.20417969 74.2809375 -7.0703125 74.3125 C-8.25109375 74.31765625 -9.431875 74.3228125 -10.6484375 74.328125 C-11.72270996 74.3374707 -12.79698242 74.34681641 -13.90380859 74.35644531 C-18.99133989 73.77074939 -21.96172109 72.16857399 -25.35986328 68.34399414 C-27.42507149 64.13334263 -27.46108276 61.1021695 -27.2421875 56.49609375 C-27.21907501 55.69518814 -27.19596252 54.89428253 -27.17214966 54.06910706 C-27.11939394 52.38370676 -27.05661923 50.69859346 -26.984375 49.01391602 C-26.87521064 46.4424617 -26.79829373 43.87157189 -26.7265625 41.29882812 C-26.67116001 39.6561852 -26.6139301 38.01360267 -26.5546875 36.37109375 C-26.53058807 35.60639267 -26.50648865 34.84169159 -26.48165894 34.05381775 C-26.09620453 25.57553792 -23.0204343 20.74912717 -17 15 C-14.0625 13.5 -14.0625 13.5 -12 13 C-12.33 10.36 -12.66 7.72 -13 5 C-12.34 5 -11.68 5 -11 5 C-10.896875 4.360625 -10.79375 3.72125 -10.6875 3.0625 C-10.460625 2.381875 -10.23375 1.70125 -10 1 C-6.40735548 -0.19754817 -3.77282526 -0.33094958 0 0 Z M1 34 C1 34.66 1 35.32 1 36 C2.32 36 3.64 36 5 36 C5 35.34 5 34.68 5 34 C3.68 34 2.36 34 1 34 Z " fill="#17939D" transform="translate(53,11)"/>
<path d="M0 0 C0.33 0 0.66 0 1 0 C1 1.98 1 3.96 1 6 C-2.63 6 -6.26 6 -10 6 C-10.33 9.3 -10.66 12.6 -11 16 C-9.88625 15.95875 -8.7725 15.9175 -7.625 15.875 C-4 16 -4 16 -2 18 C-2.55555556 22.55555556 -2.55555556 22.55555556 -4 24 C-6.33297433 24.04092937 -8.66705225 24.04241723 -11 24 C-11 25.98 -11 27.96 -11 30 C-15.43076923 32.09230769 -15.43076923 32.09230769 -18.3125 31.625 C-19.1478125 31.315625 -19.1478125 31.315625 -20 31 C-20 29.02 -20 27.04 -20 25 C-20.78375 24.87625 -21.5675 24.7525 -22.375 24.625 C-25 24 -25 24 -27 22 C-26.625 18.875 -26.625 18.875 -26 16 C-24.02 15.67 -22.04 15.34 -20 15 C-19.67 12.03 -19.34 9.06 -19 6 C-20.98567708 6.29296875 -22.97135417 6.5859375 -24.95703125 6.87890625 C-27 7 -27 7 -30 6 C-29.9278125 7.05058594 -29.855625 8.10117187 -29.78125 9.18359375 C-28.70327241 25.26326658 -28.70327241 25.26326658 -29 31 C-29.66 31.66 -30.32 32.32 -31 33 C-31 23.76 -31 14.52 -31 5 C-20.77 5 -10.54 5 0 5 C0 3.35 0 1.7 0 0 Z M-17 6 C-17 6.66 -17 7.32 -17 8 C-15.68 8 -14.36 8 -13 8 C-13 7.34 -13 6.68 -13 6 C-14.32 6 -15.64 6 -17 6 Z " fill="#309FA9" transform="translate(71,39)"/>
<path d="M0 0 C0.33 0 0.66 0 1 0 C1 1.98 1 3.96 1 6 C-2.63 6 -6.26 6 -10 6 C-10.33 9.3 -10.66 12.6 -11 16 C-11.33 16 -11.66 16 -12 16 C-12 13.69 -12 11.38 -12 9 C-12.66 8.67 -13.32 8.34 -14 8 C-13.67 7.34 -13.34 6.68 -13 6 C-14.32 6 -15.64 6 -17 6 C-16.67 6.99 -16.34 7.98 -16 9 C-16.33 9.33 -16.66 9.66 -17 10 C-17.36760731 12.32817964 -17.70241581 14.6618385 -18 17 C-21.96 17.495 -21.96 17.495 -26 18 C-26 17.34 -26 16.68 -26 16 C-24.02 15.67 -22.04 15.34 -20 15 C-19.67 12.03 -19.34 9.06 -19 6 C-20.98567708 6.29296875 -22.97135417 6.5859375 -24.95703125 6.87890625 C-27 7 -27 7 -30 6 C-29.9278125 7.05058594 -29.855625 8.10117187 -29.78125 9.18359375 C-28.70327241 25.26326658 -28.70327241 25.26326658 -29 31 C-29.66 31.66 -30.32 32.32 -31 33 C-31 23.76 -31 14.52 -31 5 C-20.77 5 -10.54 5 0 5 C0 3.35 0 1.7 0 0 Z " fill="#F3F6FE" transform="translate(71,39)"/>
<path d="M0 0 C0 3 0 3 0 3 Z " fill="#EFF7FF" transform="translate(43,55)"/>
<path d="" fill="#FFFFFF" transform="translate(0,0)"/>
</svg>
